<?xml version="1.0" standalone="no"?>
<!DOCTYPE svg PUBLIC "-//W3C//DTD SVG 20010904//EN"
 "http://www.w3.org/TR/2001/REC-SVG-20010904/DTD/svg10.dtd">
<svg version="1.0" xmlns="http://www.w3.org/2000/svg"
 width="512.000000pt" height="512.000000pt" viewBox="0 0 512.000000 512.000000"
 preserveAspectRatio="xMidYMid meet">
<metadata>
Created by potrace 1.14, written by Peter Selinger 2001-2017
</metadata>
<g transform="translate(0.000000,512.000000) scale(0.100000,-0.100000)"
fill="#000000" stroke="none">
<path d="M300 4364 c0 -7 -29 -10 -81 -9 -49 0 -87 -4 -97 -11 -19 -14 -16
-22 54 -151 25 -46 45 -86 46 -90 1 -5 7 -14 12 -21 25 -30 32 -39 44 -60 7
-13 10 -28 6 -35 -4 -7 -4 -9 1 -5 11 10 47 -50 39 -64 -4 -6 -3 -8 3 -5 10 6
20 -7 21 -27 0 -5 7 -13 16 -18 9 -5 16 -14 16 -20 0 -6 11 -26 25 -44 14 -18
25 -38 25 -45 0 -6 24 -49 54 -93 30 -45 56 -88 58 -96 2 -7 11 -22 21 -32 10
-11 16 -26 13 -34 -3 -8 -2 -13 2 -10 12 7 44 -52 36 -66 -4 -7 -3 -8 4 -4 11
6 16 -6 13 -26 0 -5 4 -8 9 -8 6 0 15 -11 20 -25 5 -14 14 -25 20 -25 6 0 9
-4 6 -9 -3 -5 1 -14 9 -21 8 -7 15 -21 15 -31 0 -11 3 -19 8 -19 4 0 14 -15
22 -32 7 -18 22 -42 32 -52 10 -11 18 -24 18 -30 0 -5 6 -17 14 -25 7 -9 33
-54 57 -101 24 -47 48 -88 53 -91 5 -4 5 -12 1 -19 -5 -9 -4 -11 3 -6 8 4 16
-4 23 -21 6 -15 18 -36 26 -45 9 -10 13 -18 9 -18 -4 0 2 -10 14 -22 18 -20
25 -39 21 -61 -1 -5 3 -6 8 -2 11 6 43 -48 36 -59 -3 -3 -2 -4 1 -1 10 7 139
-218 132 -228 -2 -2 5 -12 15 -22 10 -10 15 -25 12 -33 -3 -9 -3 -13 1 -9 8 8
36 -12 30 -22 -3 -4 11 -27 30 -50 32 -41 38 -55 35 -74 -1 -5 3 -6 8 -3 8 5
25 -22 21 -33 -1 -2 12 -12 28 -23 l30 -19 29 27 c15 15 21 23 13 19 -13 -8
-13 -7 0 11 8 10 16 21 17 23 1 2 11 -2 20 -10 15 -11 16 -11 6 1 -18 20 -16
47 5 59 9 6 13 11 7 11 -5 0 1 10 15 21 14 11 19 17 11 13 -10 -5 -11 -3 -5 7
5 8 20 31 33 52 12 20 27 37 32 37 5 0 8 6 7 13 -2 6 3 11 10 9 8 -1 11 2 7 8
-9 14 36 101 48 93 6 -4 7 -1 3 6 -5 7 0 21 10 32 9 10 14 19 9 19 -4 0 -2 7
5 15 7 8 16 12 21 10 4 -3 6 3 4 13 -4 22 20 56 34 47 6 -3 11 -2 11 4 0 5 -5
11 -11 13 -6 2 2 17 18 33 15 15 22 25 15 21 -10 -6 -10 -2 -1 18 10 22 15 24
28 13 14 -11 14 -10 2 6 -13 16 -13 20 0 27 10 7 11 12 2 21 -6 6 -9 18 -6 25
3 8 0 14 -7 14 -7 0 -9 8 -5 21 4 13 3 19 -2 16 -5 -4 -19 12 -31 34 -12 22
-16 36 -9 32 6 -4 2 6 -11 21 -12 16 -22 35 -22 42 0 8 -5 14 -11 14 -6 0 -9
9 -6 20 3 11 1 18 -4 15 -4 -3 -16 9 -25 27 -9 17 -23 38 -30 46 -8 7 -17 24
-20 38 -3 13 -10 24 -15 24 -5 0 -9 7 -9 16 0 9 -9 27 -20 41 -22 28 -27 48
-8 37 7 -4 8 -3 4 5 -4 6 -12 9 -17 5 -6 -3 -16 2 -24 12 -10 14 -10 21 -2 26
8 5 6 8 -6 8 -10 0 -16 4 -13 9 3 5 -1 11 -9 15 -8 3 -15 10 -15 17 0 6 -9 22
-20 36 -11 14 -17 29 -14 34 3 5 1 9 -4 9 -4 0 -18 18 -30 40 l-21 40 22 15
c26 18 51 20 41 3 -6 -10 -4 -10 7 -2 21 16 178 17 197 2 12 -10 14 -10 8 -1
-5 10 12 12 76 10 46 -2 90 -7 97 -12 9 -5 12 -4 8 2 -4 6 21 10 68 10 50 1
75 -3 75 -10 0 -9 2 -9 8 -1 4 7 48 11 120 10 61 -1 112 3 112 7 0 5 4 6 9 2
5 -3 16 1 24 9 8 8 18 12 22 8 5 -4 5 -2 1 5 -4 7 1 21 11 31 10 10 19 25 21
33 2 8 8 16 13 17 5 2 9 11 9 20 0 13 3 12 15 -4 14 -18 15 -18 6 6 -9 27 -4
53 9 45 5 -3 11 9 15 26 4 17 13 33 21 36 8 3 12 9 9 13 -3 4 3 18 13 31 10
13 22 32 25 42 4 11 12 15 18 11 8 -4 9 -3 5 5 -4 6 -2 19 6 28 11 14 11 16
-2 8 -13 -8 -13 -6 -1 8 7 9 18 14 23 10 6 -3 8 0 6 8 -7 20 11 51 24 43 7 -4
8 -2 4 5 -10 16 22 64 36 55 6 -4 8 -3 5 3 -6 10 38 110 54 123 4 3 9 15 13
28 5 13 12 20 19 15 8 -4 8 -2 -1 9 -7 8 -10 23 -6 32 7 17 7 17 -126 20 -36
0 -71 5 -79 10 -9 6 -12 5 -8 -1 7 -12 -132 -11 -152 1 -9 6 -12 5 -8 -1 7
-11 -102 -12 -119 -1 -6 4 -14 4 -18 1 -10 -10 -136 -11 -142 -1 -3 5 -11 5
-17 1 -19 -12 -637 -10 -637 2 0 6 -3 6 -8 -1 -10 -14 -414 -14 -424 0 -5 8
-8 8 -8 0 0 -14 -280 -14 -280 0 0 8 -2 8 -8 0 -10 -14 -304 -14 -314 1 -5 7
-8 7 -8 -1z"/>
<path d="M3609 4346 c-2 -2 -67 -6 -145 -8 -161 -6 -167 -8 -221 -90 -37 -56
-114 -182 -126 -208 -4 -8 -18 -33 -32 -55 -14 -22 -31 -51 -38 -65 -6 -14
-14 -27 -18 -30 -3 -3 -30 -50 -59 -105 -30 -55 -59 -103 -64 -107 -6 -4 -7
-8 -1 -8 5 0 4 -5 -3 -12 -18 -18 -15 -48 6 -49 34 -3 78 -8 105 -12 15 -2 27
0 27 6 0 6 5 6 13 0 6 -5 51 -8 100 -7 60 2 85 -1 81 -8 -5 -7 -2 -8 7 -2 21
14 120 14 112 0 -5 -8 -3 -8 8 0 8 6 54 10 109 9 52 -1 105 2 118 7 13 4 22 4
22 -3 0 -6 5 -7 10 -4 6 3 10 0 10 -7 0 -9 3 -9 10 2 5 8 10 11 10 7 0 -4 9
-3 19 3 11 5 22 7 25 2 6 -10 78 -8 96 3 10 6 12 4 6 -10 -5 -15 -4 -16 8 -6
8 7 21 9 27 5 7 -4 9 -3 6 3 -7 11 53 10 71 -1 6 -3 14 -2 17 4 4 6 12 7 18 2
7 -4 28 -7 47 -6 19 0 41 -4 48 -9 7 -6 12 -6 11 -1 -3 20 2 22 31 14 20 -6
30 -5 30 2 0 6 10 3 22 -8 12 -10 18 -13 14 -6 -6 10 -1 12 23 9 18 -3 31 -1
31 5 0 7 4 7 13 0 8 -7 18 -7 27 -2 9 5 20 5 28 -2 10 -9 16 -8 23 3 6 10 9
11 9 1 0 -9 5 -10 19 -2 14 7 22 7 27 -1 4 -8 9 -7 15 2 7 11 9 11 9 1 0 -9 5
-10 18 -3 11 6 24 6 36 -1 11 -6 16 -6 13 -1 -4 6 9 10 29 11 25 1 33 -2 28
-11 -4 -7 3 -3 16 8 23 19 23 19 16 1 -6 -18 -5 -19 11 -4 10 8 26 14 35 13 9
-2 19 4 22 12 3 8 11 11 17 7 7 -4 9 -3 6 3 -9 15 29 47 45 37 11 -6 11 -5 0
8 -10 12 -10 17 1 27 8 6 17 8 21 4 4 -4 4 1 0 11 -6 15 -4 17 6 11 8 -5 11
-4 7 3 -9 13 2 42 15 42 5 0 6 -5 2 -12 -5 -7 -3 -8 5 -3 9 5 10 10 2 18 -7 7
-5 15 7 24 9 8 11 12 5 8 -8 -3 -6 6 5 24 9 17 20 31 25 31 4 0 7 6 7 14 0 23
34 76 46 72 6 -2 11 2 11 10 0 7 -4 11 -9 8 -5 -3 0 10 11 28 10 18 24 32 32
30 9 -2 9 1 -2 14 -9 12 -9 15 -1 10 7 -4 12 -1 12 8 0 9 5 16 10 16 6 0 10 5
10 11 0 14 70 131 84 141 6 4 7 8 3 8 -5 0 0 16 12 36 12 19 15 32 9 28 -10
-6 -10 -4 0 8 8 10 9 18 3 22 -6 4 -257 6 -558 6 -747 0 -815 0 -823 5 -4 3
-9 3 -11 1z"/>
<path d="M4955 4180 c-3 -5 -1 -10 4 -10 6 0 11 5 11 10 0 6 -2 10 -4 10 -3 0
-8 -4 -11 -10z"/>
<path d="M2614 4116 c1 -8 5 -18 8 -22 4 -3 5 1 4 10 -1 8 -5 18 -8 22 -4 3
-5 -1 -4 -10z"/>
<path d="M2550 4106 c0 -2 7 -7 16 -10 8 -3 12 -2 9 4 -6 10 -25 14 -25 6z"/>
<path d="M4986 4082 c-3 -5 1 -9 9 -9 8 0 12 4 9 9 -3 4 -7 8 -9 8 -2 0 -6 -4
-9 -8z"/>
<path d="M2490 3959 c0 -5 5 -7 10 -4 6 3 10 8 10 11 0 2 -4 4 -10 4 -5 0 -10
-5 -10 -11z"/>
<path d="M4890 3966 c0 -2 7 -7 16 -10 8 -3 12 -2 9 4 -6 10 -25 14 -25 6z"/>
<path d="M2465 3880 c-3 -6 1 -7 9 -4 18 7 21 14 7 14 -6 0 -13 -4 -16 -10z"/>
<path d="M2375 3771 c-3 -5 -2 -12 3 -15 5 -3 9 1 9 9 0 17 -3 19 -12 6z"/>
<path d="M4686 3678 c3 -5 10 -6 15 -3 13 9 11 12 -6 12 -8 0 -12 -4 -9 -9z"/>
<path d="M4745 3680 c-3 -6 1 -7 9 -4 18 7 21 14 7 14 -6 0 -13 -4 -16 -10z"/>
<path d="M4716 3647 c3 -10 9 -15 12 -12 3 3 0 11 -7 18 -10 9 -11 8 -5 -6z"/>
<path d="M1575 3600 c3 -5 8 -10 11 -10 2 0 4 5 4 10 0 6 -5 10 -11 10 -5 0
-7 -4 -4 -10z"/>
<path d="M2213 3585 c0 -8 4 -12 9 -9 5 3 6 10 3 15 -9 13 -12 11 -12 -6z"/>
<path d="M1705 3580 c-3 -6 1 -7 9 -4 18 7 21 14 7 14 -6 0 -13 -4 -16 -10z"/>
<path d="M1870 3586 c0 -2 7 -7 16 -10 8 -3 12 -2 9 4 -6 10 -25 14 -25 6z"/>
<path d="M2055 3580 c-3 -5 -1 -10 4 -10 6 0 11 5 11 10 0 6 -2 10 -4 10 -3 0
-8 -4 -11 -10z"/>
<path d="M2130 3579 c0 -5 5 -7 10 -4 6 3 10 8 10 11 0 2 -4 4 -10 4 -5 0 -10
-5 -10 -11z"/>
<path d="M3120 3580 c-9 -6 -10 -10 -3 -10 6 0 15 5 18 10 8 12 4 12 -15 0z"/>
<path d="M3855 3580 c3 -5 8 -10 11 -10 2 0 4 5 4 10 0 6 -5 10 -11 10 -5 0
-7 -4 -4 -10z"/>
<path d="M4067 3579 c7 -7 15 -10 18 -7 3 3 -2 9 -12 12 -14 6 -15 5 -6 -5z"/>
<path d="M3175 3571 c-3 -5 -2 -12 3 -15 5 -3 9 1 9 9 0 17 -3 19 -12 6z"/>
<path d="M3455 3571 c-3 -5 -2 -12 3 -15 5 -3 9 1 9 9 0 17 -3 19 -12 6z"/>
<path d="M4355 3569 c-4 -6 -5 -12 -2 -15 2 -3 7 2 10 11 7 17 1 20 -8 4z"/>
<path d="M3395 3560 c-3 -5 -1 -10 4 -10 6 0 11 5 11 10 0 6 -2 10 -4 10 -3 0
-8 -4 -11 -10z"/>
<path d="M3806 3558 c3 -5 10 -6 15 -3 13 9 11 12 -6 12 -8 0 -12 -4 -9 -9z"/>
<path d="M3986 3558 c3 -5 10 -6 15 -3 13 9 11 12 -6 12 -8 0 -12 -4 -9 -9z"/>
<path d="M4226 3558 c3 -5 10 -6 15 -3 13 9 11 12 -6 12 -8 0 -12 -4 -9 -9z"/>
<path d="M1490 3539 c0 -5 5 -7 10 -4 6 3 10 8 10 11 0 2 -4 4 -10 4 -5 0 -10
-5 -10 -11z"/>
<path d="M3156 3527 c3 -10 9 -15 12 -12 3 3 0 11 -7 18 -10 9 -11 8 -5 -6z"/>
<path d="M1500 3446 c0 -2 8 -10 18 -17 15 -13 16 -12 3 4 -13 16 -21 21 -21
13z"/>
<path d="M1646 3202 c-3 -5 1 -9 9 -9 8 0 12 4 9 9 -3 4 -7 8 -9 8 -2 0 -6 -4
-9 -8z"/>
<path d="M2647 3055 c-33 -8 -46 -18 -63 -48 -11 -20 -29 -47 -40 -60 -11 -12
-21 -26 -23 -32 -4 -13 -54 -99 -61 -105 -3 -3 -18 -31 -34 -62 -16 -32 -33
-58 -38 -58 -4 0 -7 -3 -6 -7 3 -8 -70 -133 -82 -143 -3 -3 -14 -21 -23 -40
-10 -19 -23 -44 -30 -55 -52 -85 -78 -129 -108 -185 -18 -36 -37 -69 -42 -75
-18 -24 -86 -136 -121 -200 -21 -38 -46 -81 -56 -95 -9 -14 -20 -32 -23 -40
-4 -8 -17 -31 -28 -50 -12 -19 -34 -59 -50 -89 -16 -30 -29 -50 -29 -45 -1 5
-12 -14 -25 -43 -19 -40 -22 -58 -15 -81 4 -17 6 -33 2 -36 -3 -3 0 -6 6 -6 9
0 107 -160 113 -185 1 -5 9 -15 18 -22 9 -7 12 -13 8 -13 -5 0 1 -13 12 -28
11 -16 21 -35 23 -42 2 -8 9 -21 16 -29 7 -7 11 -20 8 -28 -3 -8 -2 -12 3 -9
9 6 56 -66 63 -94 2 -7 12 -23 23 -35 12 -13 27 -36 35 -52 8 -15 23 -40 33
-55 10 -16 15 -28 11 -28 -4 0 1 -6 11 -14 14 -10 25 -11 42 -3 12 5 21 13 19
16 -8 12 23 43 35 35 8 -5 9 -3 3 7 -14 23 -13 39 2 39 9 0 12 5 8 11 -5 9 1
10 22 5 l29 -6 -25 15 c-14 8 -19 14 -12 15 6 0 12 9 12 21 0 15 4 19 16 15
14 -5 15 -4 4 9 -13 16 -6 20 30 16 13 -2 13 -1 0 9 -12 8 -13 12 -2 19 8 4
13 10 12 12 -4 8 34 79 42 79 5 0 6 5 3 10 -3 6 -1 10 4 10 6 0 10 6 9 13 -2
6 3 11 10 9 8 -1 11 2 8 7 -8 12 14 61 26 61 5 0 7 4 3 9 -3 5 1 15 8 23 14
14 24 31 72 121 20 40 35 57 50 58 19 0 19 1 0 8 -18 7 -18 8 -1 18 10 5 17
13 17 16 -3 19 0 19 14 1 14 -18 14 -17 5 9 -13 37 -13 40 6 33 8 -3 13 -2 10
2 -2 4 6 28 20 52 13 25 27 53 30 63 4 11 13 16 22 12 12 -4 13 -3 2 10 -8 10
-9 15 -1 15 6 0 11 4 11 9 0 4 17 38 37 74 31 57 39 65 52 54 14 -10 14 -10 3
5 -11 13 -11 21 0 40 7 13 19 27 26 31 6 4 12 15 12 22 0 8 5 15 10 15 6 0 10
9 10 20 0 11 4 20 8 20 5 0 14 16 22 35 8 19 17 35 22 35 4 0 7 3 6 8 -3 8 52
104 65 113 5 3 8 10 8 15 -1 5 3 9 9 9 5 0 15 7 22 15 11 12 11 12 -4 1 -13
-10 -18 -10 -18 -2 0 16 51 62 61 55 5 -3 9 1 9 8 0 10 2 10 9 -1 7 -11 9 -11
13 0 2 7 11 10 22 6 10 -4 14 -12 10 -18 -4 -8 -3 -9 5 -5 6 4 9 12 6 17 -4 5
0 9 9 9 8 0 17 -6 19 -12 4 -10 6 -10 6 0 1 6 6 12 12 12 5 0 7 -6 3 -12 -5
-9 -2 -9 9 1 14 11 20 11 34 0 11 -10 14 -10 9 -1 -4 6 -3 12 1 12 5 0 15 -6
22 -12 11 -11 12 -10 6 0 -8 16 26 13 37 -3 5 -6 8 -4 8 5 0 13 1 13 10 0 6
-10 10 -11 10 -2 0 6 6 12 14 12 8 0 17 -6 19 -12 4 -10 6 -10 6 0 1 6 6 12
12 12 5 0 7 -5 3 -12 -5 -7 -3 -8 7 -2 22 14 80 15 72 1 -4 -7 1 -6 10 2 14
11 17 11 17 0 0 -9 3 -10 8 -4 11 16 74 18 84 3 6 -10 8 -10 8 0 0 6 11 12 25
12 14 0 25 -4 25 -10 0 -5 5 -10 11 -10 5 0 7 5 4 10 -4 6 11 10 39 10 26 0
46 -5 49 -12 4 -10 6 -10 6 0 1 6 12 12 25 12 13 0 27 -6 29 -12 4 -10 6 -10
6 0 1 6 8 12 17 12 9 0 12 -5 8 -12 -6 -10 -4 -10 7 0 7 6 23 12 35 12 12 0
25 -6 27 -12 3 -8 6 -5 6 5 1 10 5 16 9 13 5 -3 19 13 33 35 13 22 30 47 37
54 6 7 12 21 12 30 0 9 4 13 10 10 6 -3 7 1 4 9 -3 9 -2 16 4 16 5 0 12 10 15
23 4 12 13 31 22 42 l15 20 -6 -20 c-4 -15 -3 -16 4 -6 5 7 8 21 6 30 -3 9 7
30 21 46 15 17 23 24 19 16 -4 -9 -3 -12 4 -7 6 4 9 13 6 20 -3 7 1 20 9 28 8
8 18 24 21 36 4 12 11 22 15 22 4 0 8 6 8 13 0 7 27 60 60 117 90 158 96 171
84 183 -15 15 -1605 16 -1664 2z"/>
<path d="M4210 2779 c0 -5 5 -7 10 -4 6 3 10 8 10 11 0 2 -4 4 -10 4 -5 0 -10
-5 -10 -11z"/>
<path d="M1793 2745 c0 -8 4 -12 9 -9 5 3 6 10 3 15 -9 13 -12 11 -12 -6z"/>
<path d="M4186 2738 c3 -5 10 -6 15 -3 13 9 11 12 -6 12 -8 0 -12 -4 -9 -9z"/>
<path d="M4176 2662 c-3 -5 1 -9 9 -9 8 0 12 4 9 9 -3 4 -7 8 -9 8 -2 0 -6 -4
-9 -8z"/>
<path d="M1710 2616 c0 -2 8 -10 18 -17 15 -13 16 -12 3 4 -13 16 -21 21 -21
13z"/>
<path d="M4075 2600 c-3 -5 -1 -10 4 -10 6 0 11 5 11 10 0 6 -2 10 -4 10 -3 0
-8 -4 -11 -10z"/>
<path d="M1699 2548 c-5 -18 -6 -38 -1 -34 7 8 12 36 6 36 -2 0 -4 -1 -5 -2z"/>
<path d="M4039 2513 c-13 -16 -12 -17 4 -4 9 7 17 15 17 17 0 8 -8 3 -21 -13z"/>
<path d="M4080 2520 c-9 -6 -10 -10 -3 -10 6 0 15 5 18 10 8 12 4 12 -15 0z"/>
<path d="M4050 2460 c0 -5 5 -10 11 -10 5 0 7 5 4 10 -3 6 -8 10 -11 10 -2 0
-4 -4 -4 -10z"/>
<path d="M1573 2395 c0 -8 4 -12 9 -9 4 3 8 9 8 15 0 5 -4 9 -8 9 -5 0 -9 -7
-9 -15z"/>
<path d="M4030 2402 c0 -5 7 -9 15 -9 8 0 12 4 9 9 -3 4 -9 8 -15 8 -5 0 -9
-4 -9 -8z"/>
<path d="M3855 2311 c-3 -5 -2 -12 3 -15 5 -3 9 1 9 9 0 17 -3 19 -12 6z"/>
<path d="M3067 2279 c7 -7 15 -10 18 -7 3 3 -2 9 -12 12 -14 6 -15 5 -6 -5z"/>
<path d="M3470 2286 c0 -2 7 -7 16 -10 8 -3 12 -2 9 4 -6 10 -25 14 -25 6z"/>
<path d="M3635 2280 c3 -5 8 -10 11 -10 2 0 4 5 4 10 0 6 -5 10 -11 10 -5 0
-7 -4 -4 -10z"/>
<path d="M3133 2263 c4 -3 1 -13 -6 -22 -11 -14 -10 -14 5 -2 16 12 16 31 1
31 -4 0 -3 -3 0 -7z"/>
<path d="M3035 2220 c3 -5 8 -10 11 -10 2 0 4 5 4 10 0 6 -5 10 -11 10 -5 0
-7 -4 -4 -10z"/>
<path d="M3155 2209 c-4 -6 -5 -12 -2 -15 2 -3 7 2 10 11 7 17 1 20 -8 4z"/>
<path d="M3010 2180 c0 -5 5 -10 11 -10 5 0 7 5 4 10 -3 6 -8 10 -11 10 -2 0
-4 -4 -4 -10z"/>
<path d="M2970 2139 c0 -5 5 -7 10 -4 6 3 10 8 10 11 0 2 -4 4 -10 4 -5 0 -10
-5 -10 -11z"/>
<path d="M2896 2055 c-9 -26 -7 -32 5 -12 6 10 9 21 6 23 -2 3 -7 -2 -11 -11z"/>
<path d="M2930 2060 c0 -5 5 -10 11 -10 5 0 7 5 4 10 -3 6 -8 10 -11 10 -2 0
-4 -4 -4 -10z"/>
<path d="M2874 2009 c-3 -6 -2 -15 3 -20 5 -5 9 -1 9 11 0 23 -2 24 -12 9z"/>
<path d="M2850 1959 c0 -5 5 -7 10 -4 6 3 10 8 10 11 0 2 -4 4 -10 4 -5 0 -10
-5 -10 -11z"/>
<path d="M2815 1860 c-3 -5 -1 -10 4 -10 6 0 11 5 11 10 0 6 -2 10 -4 10 -3 0
-8 -4 -11 -10z"/>
<path d="M2775 1780 c-3 -5 -1 -10 4 -10 6 0 11 5 11 10 0 6 -2 10 -4 10 -3 0
-8 -4 -11 -10z"/>
<path d="M2730 1720 c0 -5 5 -10 11 -10 5 0 7 5 4 10 -3 6 -8 10 -11 10 -2 0
-4 -4 -4 -10z"/>
<path d="M2690 1659 c0 -5 5 -7 10 -4 6 3 10 8 10 11 0 2 -4 4 -10 4 -5 0 -10
-5 -10 -11z"/>
<path d="M2690 1621 c0 -6 4 -13 10 -16 6 -3 7 1 4 9 -7 18 -14 21 -14 7z"/>
<path d="M2673 1555 c0 -8 4 -12 9 -9 5 3 6 10 3 15 -9 13 -12 11 -12 -6z"/>
<path d="M2540 1466 c0 -2 8 -10 18 -17 15 -13 16 -12 3 4 -13 16 -21 21 -21
13z"/>
<path d="M2550 1406 c0 -2 7 -7 16 -10 8 -3 12 -2 9 4 -6 10 -25 14 -25 6z"/>
<path d="M2515 1369 c-4 -6 -5 -12 -2 -15 2 -3 7 2 10 11 7 17 1 20 -8 4z"/>
<path d="M2476 1353 c-6 -14 -5 -15 5 -6 7 7 10 15 7 18 -3 3 -9 -2 -12 -12z"/>
<path d="M2429 1263 c-13 -16 -12 -17 4 -4 9 7 17 15 17 17 0 8 -8 3 -21 -13z"/>
<path d="M2353 1095 c0 -8 4 -12 9 -9 5 3 6 10 3 15 -9 13 -12 11 -12 -6z"/>
<path d="M2390 1039 c0 -5 5 -7 10 -4 6 3 10 8 10 11 0 2 -4 4 -10 4 -5 0 -10
-5 -10 -11z"/>
<path d="M2250 920 c0 -5 5 -10 11 -10 5 0 7 5 4 10 -3 6 -8 10 -11 10 -2 0
-4 -4 -4 -10z"/>
</g>
</svg>
